<mxfile host="app.diagrams.net" modified="2023-07-12T09:35:06.381Z" agent="Mozilla/5.0 (Windows NT 10.0; Win64; x64) AppleWebKit/537.36 (KHTML, like Gecko) Chrome/114.0.0.0 Safari/537.36" version="21.6.2" etag="lFkFhaO-jGQijx1pSZPR" type="github">
  <diagram name="第 1 页" id="WmZSi9FoHHTL8ZIb0o28">
    <mxGraphModel>
      <root>
        <mxCell id="0" />
        <mxCell id="1" parent="0" />
      </root>
    </mxGraphModel>
  </diagram>
</mxfile>
